<?xml version="1.0" encoding="UTF-8" standalone="no"?>
<!-- Generator: Adobe Illustrator 19.0.0, SVG Export Plug-In . SVG Version: 6.00 Build 0)  -->

<svg
   xmlns:dc="http://purl.org/dc/elements/1.1/"
   xmlns:cc="http://creativecommons.org/ns#"
   xmlns:rdf="http://www.w3.org/1999/02/22-rdf-syntax-ns#"
   xmlns:svg="http://www.w3.org/2000/svg"
   xmlns="http://www.w3.org/2000/svg"
   xmlns:xlink="http://www.w3.org/1999/xlink"
   xmlns:sodipodi="http://sodipodi.sourceforge.net/DTD/sodipodi-0.dtd"
   xmlns:inkscape="http://www.inkscape.org/namespaces/inkscape"
   version="1.1"
   id="Layer_1"
   x="0px"
   y="0px"
   viewBox="0 0 469.333 469.333"
   style="enable-background:new 0 0 469.333 469.333;"
   xml:space="preserve"
   sodipodi:docname="save_p.svg"
   inkscape:version="0.92.5 (2060ec1f9f, 2020-04-08)"><metadata
   id="metadata47"><rdf:RDF><cc:Work
       rdf:about=""><dc:format>image/svg+xml</dc:format><dc:type
         rdf:resource="http://purl.org/dc/dcmitype/StillImage" /><dc:title></dc:title></cc:Work></rdf:RDF></metadata><defs
   id="defs45"><linearGradient
     inkscape:collect="always"
     id="linearGradient858"><stop
       style="stop-color:#ff00ff;stop-opacity:1;"
       offset="0"
       id="stop854" /><stop
       style="stop-color:#ff00ff;stop-opacity:0;"
       offset="1"
       id="stop856" /></linearGradient><linearGradient
     inkscape:collect="always"
     xlink:href="#linearGradient858"
     id="linearGradient860"
     x1="332.11276"
     y1="-23.864393"
     x2="332.11276"
     y2="1004.2931"
     gradientUnits="userSpaceOnUse" /><linearGradient
     inkscape:collect="always"
     xlink:href="#linearGradient858"
     id="linearGradient862"
     x1="332.11276"
     y1="-23.864393"
     x2="332.11276"
     y2="1004.2931"
     gradientUnits="userSpaceOnUse" /><linearGradient
     inkscape:collect="always"
     xlink:href="#linearGradient858"
     id="linearGradient864"
     x1="332.11276"
     y1="-23.864393"
     x2="332.11276"
     y2="1004.2931"
     gradientUnits="userSpaceOnUse" /><linearGradient
     inkscape:collect="always"
     xlink:href="#linearGradient858"
     id="linearGradient866"
     x1="332.11276"
     y1="-23.864393"
     x2="332.11276"
     y2="1004.2931"
     gradientUnits="userSpaceOnUse" /><linearGradient
     inkscape:collect="always"
     xlink:href="#linearGradient858"
     id="linearGradient868"
     x1="332.11276"
     y1="-23.864393"
     x2="332.11276"
     y2="1004.2931"
     gradientUnits="userSpaceOnUse" /><linearGradient
     inkscape:collect="always"
     xlink:href="#linearGradient858"
     id="linearGradient870"
     x1="332.11276"
     y1="-23.864393"
     x2="332.11276"
     y2="1004.2931"
     gradientUnits="userSpaceOnUse" /><linearGradient
     inkscape:collect="always"
     xlink:href="#linearGradient858"
     id="linearGradient872"
     x1="332.11276"
     y1="-23.864393"
     x2="332.11276"
     y2="1004.2931"
     gradientUnits="userSpaceOnUse" /><linearGradient
     inkscape:collect="always"
     xlink:href="#linearGradient858"
     id="linearGradient874"
     x1="332.11276"
     y1="-23.864393"
     x2="332.11276"
     y2="1004.2931"
     gradientUnits="userSpaceOnUse" /><linearGradient
     inkscape:collect="always"
     xlink:href="#linearGradient858"
     id="linearGradient876"
     x1="332.11276"
     y1="-23.864393"
     x2="332.11276"
     y2="1004.2931"
     gradientUnits="userSpaceOnUse" /><linearGradient
     inkscape:collect="always"
     xlink:href="#linearGradient858"
     id="linearGradient878"
     x1="332.11276"
     y1="-23.864393"
     x2="332.11276"
     y2="1004.2931"
     gradientUnits="userSpaceOnUse" /><linearGradient
     inkscape:collect="always"
     xlink:href="#linearGradient858"
     id="linearGradient880"
     x1="332.11276"
     y1="-23.864393"
     x2="332.11276"
     y2="1004.2931"
     gradientUnits="userSpaceOnUse" /><linearGradient
     inkscape:collect="always"
     xlink:href="#linearGradient858"
     id="linearGradient882"
     x1="332.11276"
     y1="-23.864393"
     x2="332.11276"
     y2="1004.2931"
     gradientUnits="userSpaceOnUse" /><linearGradient
     inkscape:collect="always"
     xlink:href="#linearGradient858"
     id="linearGradient884"
     x1="332.11276"
     y1="-23.864393"
     x2="332.11276"
     y2="1004.2931"
     gradientUnits="userSpaceOnUse" /><linearGradient
     inkscape:collect="always"
     xlink:href="#linearGradient858"
     id="linearGradient886"
     x1="332.11276"
     y1="-23.864393"
     x2="332.11276"
     y2="1004.2931"
     gradientUnits="userSpaceOnUse" /><linearGradient
     inkscape:collect="always"
     xlink:href="#linearGradient858"
     id="linearGradient888"
     x1="332.11276"
     y1="-23.864393"
     x2="332.11276"
     y2="1004.2931"
     gradientUnits="userSpaceOnUse" /><linearGradient
     inkscape:collect="always"
     xlink:href="#linearGradient858"
     id="linearGradient890"
     x1="332.11276"
     y1="-23.864393"
     x2="332.11276"
     y2="1004.2931"
     gradientUnits="userSpaceOnUse" /></defs><sodipodi:namedview
   pagecolor="#ffffff"
   bordercolor="#666666"
   borderopacity="1"
   objecttolerance="10"
   gridtolerance="10"
   guidetolerance="10"
   inkscape:pageopacity="0"
   inkscape:pageshadow="2"
   inkscape:window-width="2160"
   inkscape:window-height="1372"
   id="namedview43"
   showgrid="false"
   inkscape:zoom="0.50284126"
   inkscape:cx="-224.72301"
   inkscape:cy="234.6665"
   inkscape:window-x="0"
   inkscape:window-y="0"
   inkscape:window-maximized="1"
   inkscape:current-layer="Layer_1" />
<g
   id="g10"
   style="fill:#ff00ff;fill-opacity:1">
	<g
   id="g8"
   style="fill:#ff00ff;fill-opacity:1">
		<g
   id="g6"
   style="fill:#ff00ff;fill-opacity:1">
			<path
   d="M466.208,88.458L380.875,3.125c-2-2-4.708-3.125-7.542-3.125H42.667C19.146,0,0,19.135,0,42.667v384     c0,23.531,19.146,42.667,42.667,42.667h384c23.521,0,42.667-19.135,42.667-42.667V96     C469.333,93.167,468.208,90.458,466.208,88.458z M106.667,21.333h234.667v128c0,11.76-9.563,21.333-21.333,21.333H128     c-11.771,0-21.333-9.573-21.333-21.333V21.333z M384,448H85.333V256H384V448z M448,426.667c0,11.76-9.563,21.333-21.333,21.333     h-21.333V245.333c0-5.896-4.771-10.667-10.667-10.667h-320c-5.896,0-10.667,4.771-10.667,10.667V448H42.667     c-11.771,0-21.333-9.573-21.333-21.333v-384c0-11.76,9.563-21.333,21.333-21.333h42.667v128C85.333,172.865,104.479,192,128,192     h192c23.521,0,42.667-19.135,42.667-42.667v-128h6.25L448,100.417V426.667z"
   id="path2"
   style="fill:#ff00ff;fill-opacity:1" />
			<path
   d="M266.667,149.333h42.667c5.896,0,10.667-4.771,10.667-10.667V53.333c0-5.896-4.771-10.667-10.667-10.667h-42.667     c-5.896,0-10.667,4.771-10.667,10.667v85.333C256,144.562,260.771,149.333,266.667,149.333z M277.333,64h21.333v64h-21.333V64z"
   id="path4"
   style="fill:#ff00ff;fill-opacity:1" />
		</g>
	</g>
</g>
<g
   id="g12"
   style="fill:#ff00ff;fill-opacity:1">
</g>
<g
   id="g14"
   style="fill:#ff00ff;fill-opacity:1">
</g>
<g
   id="g16"
   style="fill:#ff00ff;fill-opacity:1">
</g>
<g
   id="g18"
   style="fill:#ff00ff;fill-opacity:1">
</g>
<g
   id="g20"
   style="fill:#ff00ff;fill-opacity:1">
</g>
<g
   id="g22"
   style="fill:#ff00ff;fill-opacity:1">
</g>
<g
   id="g24"
   style="fill:#ff00ff;fill-opacity:1">
</g>
<g
   id="g26"
   style="fill:#ff00ff;fill-opacity:1">
</g>
<g
   id="g28"
   style="fill:#ff00ff;fill-opacity:1">
</g>
<g
   id="g30"
   style="fill:#ff00ff;fill-opacity:1">
</g>
<g
   id="g32"
   style="fill:#ff00ff;fill-opacity:1">
</g>
<g
   id="g34"
   style="fill:#ff00ff;fill-opacity:1">
</g>
<g
   id="g36"
   style="fill:#ff00ff;fill-opacity:1">
</g>
<g
   id="g38"
   style="fill:#ff00ff;fill-opacity:1">
</g>
<g
   id="g40"
   style="fill:#ff00ff;fill-opacity:1">
</g>
</svg>