<?xml version="1.0" encoding="UTF-8" standalone="no"?>
<svg
   xmlns:dc="http://purl.org/dc/elements/1.1/"
   xmlns:cc="http://creativecommons.org/ns#"
   xmlns:rdf="http://www.w3.org/1999/02/22-rdf-syntax-ns#"
   xmlns:svg="http://www.w3.org/2000/svg"
   xmlns="http://www.w3.org/2000/svg"
   xmlns:sodipodi="http://sodipodi.sourceforge.net/DTD/sodipodi-0.dtd"
   xmlns:inkscape="http://www.inkscape.org/namespaces/inkscape"
   height="100"
   width="100"
   version="1.1"
   x="0px"
   y="0px"
   viewBox="0 0 24 24"
   style="fill:#000000"
   xml:space="preserve"
   id="svg6"
   sodipodi:docname="info-button.svg"
   inkscape:version="0.92.5 (2060ec1f9f, 2020-04-08)"><metadata
     id="metadata12"><rdf:RDF><cc:Work
         rdf:about=""><dc:format>image/svg+xml</dc:format><dc:type
           rdf:resource="http://purl.org/dc/dcmitype/StillImage" /><dc:title></dc:title></cc:Work></rdf:RDF></metadata><defs
     id="defs10" /><sodipodi:namedview
     pagecolor="#ffffff"
     bordercolor="#666666"
     borderopacity="1"
     objecttolerance="10"
     gridtolerance="10"
     guidetolerance="10"
     inkscape:pageopacity="0"
     inkscape:pageshadow="2"
     inkscape:window-width="2160"
     inkscape:window-height="1372"
     id="namedview8"
     showgrid="false"
     fit-margin-top="0"
     fit-margin-left="0"
     fit-margin-right="0"
     fit-margin-bottom="0"
     inkscape:zoom="2.36"
     inkscape:cx="8.8983051"
     inkscape:cy="50"
     inkscape:window-x="0"
     inkscape:window-y="0"
     inkscape:window-maximized="1"
     inkscape:current-layer="svg6" /><style
     type="text/css"
     id="style2">
	.st0{fill-rule:evenodd;clip-rule:evenodd;}
</style><path
     class="st0"
     d="M 12,24 C 5.4,24 0,18.6 0,12 0,5.4 5.4,0 12,0 18.6,0 24,5.4 24,12 24,18.6 18.6,24 12,24 Z M 12,2 C 6.5,2 2,6.5 2,12 2,17.5 6.5,22 12,22 17.5,22 22,17.5 22,12 22,6.5 17.5,2 12,2 Z m 0,16 c -0.5,0 -1,-0.5 -1,-1 v -6 c 0,-0.5 0.4,-1 1,-1 0.6,0 1,0.4 1,1 0,0 0,0 0,0.1 v 6 c 0,0.4 -0.4,0.9 -1,0.9 0,0 0,0 0,0 z M 12,8 c -0.5,0 -1,-0.4 -1,-1 0,-0.6 0.4,-1 1,-1 0.5,0 1,0.4 1,1 0,0 0,0 0,0 0,0.6 -0.5,1 -1,1 z M 11,7 v 0 c 0,0 0,0 0,0 z m 2,0 v 0 c 0,0 0,0 0,0 z"
     id="path4"
     style="clip-rule:evenodd;fill:#ff00ff;fill-opacity:1;fill-rule:evenodd"
     inkscape:connector-curvature="0" /></svg>